<svg xmlns="http://www.w3.org/2000/svg" xmlns:xlink="http://www.w3.org/1999/xlink" version="1.2" width="112.94mm" height="62.38mm" viewBox="-1.1724 -3.7072 64.2682 35.4960">
<style type="text/css">
<![CDATA[
tspan { white-space: pre; }
]]>
</style>
<g transform="translate(25.9747, 1.9367)">
<rect x="0.0000" y="-2.0000" width="0.1900" height="4.0500" ry="0.0000" fill="currentColor"/>
</g>
<g transform="translate(0.0000, 3.9367)">
<line stroke-linejoin="round" stroke-linecap="round" stroke-width="0.1000" stroke="currentColor" x1="0.0500" y1="0" x2="63.0458" y2="0"/>
</g>
<g transform="translate(0.0000, 2.9367)">
<line stroke-linejoin="round" stroke-linecap="round" stroke-width="0.1000" stroke="currentColor" x1="0.0500" y1="0" x2="63.0458" y2="0"/>
</g>
<g transform="translate(0.0000, 1.9367)">
<line stroke-linejoin="round" stroke-linecap="round" stroke-width="0.1000" stroke="currentColor" x1="0.0500" y1="0" x2="63.0458" y2="0"/>
</g>
<g transform="translate(0.0000, 0.9367)">
<line stroke-linejoin="round" stroke-linecap="round" stroke-width="0.1000" stroke="currentColor" x1="0.0500" y1="0" x2="63.0458" y2="0"/>
</g>
<g transform="translate(0.0000, -0.0633)">
<line stroke-linejoin="round" stroke-linecap="round" stroke-width="0.1000" stroke="currentColor" x1="0.0500" y1="0" x2="63.0458" y2="0"/>
</g>
<g transform="translate(62.9058, -0.0000)">
<rect x="0.0000" y="3.9867" width="0.1900" height="4.9500" ry="0.0000" fill="currentColor"/>
</g>
<g transform="translate(0.0000, 7.9367)">
<rect x="36.8994" y="-0.1000" width="2.0660" height="0.2000" ry="0.1000" fill="currentColor"/>
</g>
<g transform="translate(0.0000, 12.9367)">
<line stroke-linejoin="round" stroke-linecap="round" stroke-width="0.1000" stroke="currentColor" x1="0.0500" y1="0" x2="63.0458" y2="0"/>
</g>
<g transform="translate(0.0000, 11.9367)">
<line stroke-linejoin="round" stroke-linecap="round" stroke-width="0.1000" stroke="currentColor" x1="0.0500" y1="0" x2="63.0458" y2="0"/>
</g>
<g transform="translate(0.0000, 10.9367)">
<line stroke-linejoin="round" stroke-linecap="round" stroke-width="0.1000" stroke="currentColor" x1="0.0500" y1="0" x2="63.0458" y2="0"/>
</g>
<g transform="translate(0.0000, 9.9367)">
<line stroke-linejoin="round" stroke-linecap="round" stroke-width="0.1000" stroke="currentColor" x1="0.0500" y1="0" x2="63.0458" y2="0"/>
</g>
<g transform="translate(0.0000, 8.9367)">
<line stroke-linejoin="round" stroke-linecap="round" stroke-width="0.1000" stroke="currentColor" x1="0.0500" y1="0" x2="63.0458" y2="0"/>
</g>
<g transform="translate(62.9058, 10.9367)">
<rect x="0.0000" y="-2.0500" width="0.1900" height="4.0500" ry="0.0000" fill="currentColor"/>
</g>
<g transform="translate(62.9058, 1.9367)">
<rect x="0.0000" y="-2.0000" width="0.1900" height="4.0500" ry="0.0000" fill="currentColor"/>
</g>
<g transform="translate(44.4155, -0.0000)">
<rect x="0.0000" y="3.9867" width="0.1900" height="4.9500" ry="0.0000" fill="currentColor"/>
</g>
<g transform="translate(44.4155, 10.9367)">
<rect x="0.0000" y="-2.0500" width="0.1900" height="4.0500" ry="0.0000" fill="currentColor"/>
</g>
<g transform="translate(44.4155, 1.9367)">
<rect x="0.0000" y="-2.0000" width="0.1900" height="4.0500" ry="0.0000" fill="currentColor"/>
</g>
<g transform="translate(25.9747, -0.0000)">
<rect x="0.0000" y="3.9867" width="0.1900" height="4.9500" ry="0.0000" fill="currentColor"/>
</g>
<g transform="translate(25.9747, 10.9367)">
<rect x="0.0000" y="-2.0500" width="0.1900" height="4.0500" ry="0.0000" fill="currentColor"/>
</g>
<a style="color:inherit;" xlink:href="textedit:///Users/181081/mdf/lilypond/music375/05-prechorus-melody.ly:14:2:3">
<g transform="translate(8.7000, 2.4367)">
<path transform="scale(0.0040, -0.0040)" d="M218 136c66 0 108 -36 108 -89c0 -89 -113 -183 -218 -183c-66 0 -108 36 -108 89c0 89 113 183 218 183z" fill="currentColor"/>
</g>
</a>
<g transform="translate(0.8000, 2.9367)">
<path transform="scale(0.0040, -0.0040)" d="M266 -635h-6c-108 0 -195 88 -195 197c0 58 53 103 112 103c54 0 95 -47 95 -103c0 -52 -43 -95 -95 -95c-11 0 -21 2 -31 6c26 -39 68 -65 117 -65h4zM461 -203c68 24 113 90 113 164c0 90 -66 179 -173 190c19 -89 48 -242 60 -354zM74 28c0 -145 141 -247 264 -247
c1 0 47 0 82 6c-7 64 -29 203 -63 364c-79 -8 -124 -61 -124 -119c0 -44 25 -91 81 -123c5 -5 7 -10 7 -15c0 -11 -10 -22 -22 -22c-15 0 -126 62 -126 187c0 88 58 174 160 197c-14 58 -29 117 -46 175c-107 -121 -213 -243 -213 -403zM250 553c-29 96 -52 170 -52 346
c0 115 55 224 149 292c6 5 14 5 20 0c68 -80 133 -245 133 -358c0 -143 -86 -255 -180 -364c21 -68 39 -138 56 -207c2 0 7 1 13 1c155 0 256 -128 256 -261c0 -113 -74 -212 -180 -246c3 -35 5 -70 5 -105c0 -19 -1 -39 -2 -58c-7 -119 -88 -225 -202 -228l1 43
c93 2 153 92 159 191c1 18 2 37 2 55c0 31 -1 61 -4 92c-5 -1 -44 -8 -89 -8c-193 0 -333 180 -333 374c0 177 131 306 248 441zM428 916c0 34 1 66 -20 129c-99 -48 -162 -149 -162 -259c0 -52 12 -115 36 -194c80 97 146 198 146 324z" fill="currentColor"/>
</g>
<a style="color:inherit;" xlink:href="textedit:///Users/181081/mdf/lilypond/music375/05-prechorus-melody.ly:12:15:16">
</a>
<a style="color:inherit;" xlink:href="textedit:///Users/181081/mdf/lilypond/music375/05-prechorus-melody.ly:12:29:30">
<g transform="translate(5.0000, 1.9367)">
<path transform="scale(0.0040, -0.0040)" d="M250 262c116 0 176 -106 176 -163c0 -40 -30 -72 -67 -72c-31 0 -75 25 -75 75c0 38 27 77 72 77c4 0 9 0 14 -1c-28 37 -72 59 -120 59c-106 0 -113 -73 -113 -186v-51v-51c0 -113 7 -187 113 -187c80 0 139 70 158 151c2 7 7 10 12 10c6 0 13 -4 13 -12
c0 -22 -50 -174 -183 -174c-59 0 -250 19 -250 263c0 62 18 262 250 262z" fill="currentColor"/>
</g>
</a>
<a style="color:inherit;" xlink:href="textedit:///Users/181081/mdf/lilypond/music375/05-prechorus-melody.ly:23:2:3">
<g transform="translate(8.7000, 12.4367)">
<path transform="scale(0.0040, -0.0040)" d="M218 136c66 0 108 -36 108 -89c0 -89 -113 -183 -218 -183c-66 0 -108 36 -108 89c0 89 113 183 218 183z" fill="currentColor"/>
</g>
</a>
<g transform="translate(0.8000, 9.9367)">
<path transform="scale(0.0040, -0.0040)" d="M557 -125c0 28 23 51 51 51s51 -23 51 -51s-23 -51 -51 -51s-51 23 -51 51zM557 125c0 28 23 51 51 51s51 -23 51 -51s-23 -51 -51 -51s-51 23 -51 51zM232 263c172 0 293 -88 293 -251c0 -263 -263 -414 -516 -521c-3 -3 -6 -4 -9 -4c-7 0 -13 6 -13 13c0 3 1 6 4 9
c202 118 412 265 412 493c0 120 -63 235 -171 235c-74 0 -129 -54 -154 -126c11 5 22 8 34 8c55 0 100 -45 100 -100c0 -58 -44 -106 -100 -106c-60 0 -112 47 -112 106c0 133 102 244 232 244z" fill="currentColor"/>
</g>
<a style="color:inherit;" xlink:href="textedit:///Users/181081/mdf/lilypond/music375/05-prechorus-melody.ly:21:13:14">
</a>
<a style="color:inherit;" xlink:href="textedit:///Users/181081/mdf/lilypond/music375/05-prechorus-melody.ly:21:27:28">
<g transform="translate(5.0000, 10.9367)">
<path transform="scale(0.0040, -0.0040)" d="M250 262c116 0 176 -106 176 -163c0 -40 -30 -72 -67 -72c-31 0 -75 25 -75 75c0 38 27 77 72 77c4 0 9 0 14 -1c-28 37 -72 59 -120 59c-106 0 -113 -73 -113 -186v-51v-51c0 -113 7 -187 113 -187c80 0 139 70 158 151c2 7 7 10 12 10c6 0 13 -4 13 -12
c0 -22 -50 -174 -183 -174c-59 0 -250 19 -250 263c0 62 18 262 250 262z" fill="currentColor"/>
</g>
</a>
<g transform="translate(9.9392, 1.9367)">
<rect x="-0.0650" y="-2.8132" width="0.1300" height="3.1271" ry="0.0400" fill="currentColor"/>
</g>
<g transform="translate(9.9392, 10.9367)">
<rect x="-0.0650" y="-2.0000" width="0.1300" height="3.3139" ry="0.0400" fill="currentColor"/>
</g>
<g transform="translate(45.6948, 3.1267)">
<polygon stroke-linejoin="round" stroke-linecap="round" stroke-width="0.0800" fill="currentColor" stroke="currentColor" points="7.6026 -0.5800 7.6026 -0.1800 0.0400 0.2000 0.0400 -0.2000"/>
</g>
<a style="color:inherit;" xlink:href="textedit:///Users/181081/mdf/lilypond/music375/05-prechorus-melody.ly:14:6:7">
<g transform="translate(11.2042, 2.4367)">
<path transform="scale(0.0040, -0.0040)" d="M218 136c66 0 108 -36 108 -89c0 -89 -113 -183 -218 -183c-66 0 -108 36 -108 89c0 89 113 183 218 183z" fill="currentColor"/>
</g>
</a>
<g transform="translate(12.4434, 1.9367)">
<rect x="-0.0650" y="-2.9377" width="0.1300" height="3.2516" ry="0.0400" fill="currentColor"/>
</g>
<g transform="translate(27.2269, 4.1267)">
<polygon stroke-linejoin="round" stroke-linecap="round" stroke-width="0.0800" fill="currentColor" stroke="currentColor" points="7.6026 -0.5800 7.6026 -0.1800 0.0400 0.2000 0.0400 -0.2000"/>
</g>
<a style="color:inherit;" xlink:href="textedit:///Users/181081/mdf/lilypond/music375/05-prechorus-melody.ly:14:8:9">
<g transform="translate(13.7084, 1.9367)">
<path transform="scale(0.0040, -0.0040)" d="M218 136c66 0 108 -36 108 -89c0 -89 -113 -183 -218 -183c-66 0 -108 36 -108 89c0 89 113 183 218 183z" fill="currentColor"/>
</g>
</a>
<a style="color:inherit;" xlink:href="textedit:///Users/181081/mdf/lilypond/music375/05-prechorus-melody.ly:23:5:6">
<g transform="translate(13.7084, 11.4367)">
<path transform="scale(0.0040, -0.0040)" d="M218 136c66 0 108 -36 108 -89c0 -89 -113 -183 -218 -183c-66 0 -108 36 -108 89c0 89 113 183 218 183z" fill="currentColor"/>
</g>
</a>
<g transform="translate(14.9476, 1.9367)">
<rect x="-0.0650" y="-3.0623" width="0.1300" height="2.8762" ry="0.0400" fill="currentColor"/>
</g>
<g transform="translate(14.9476, 10.9367)">
<rect x="-0.0650" y="-3.0000" width="0.1300" height="3.3139" ry="0.0400" fill="currentColor"/>
</g>
<a style="color:inherit;" xlink:href="textedit:///Users/181081/mdf/lilypond/music375/05-prechorus-melody.ly:14:10:11">
<g transform="translate(16.2126, 1.9367)">
<path transform="scale(0.0040, -0.0040)" d="M218 136c66 0 108 -36 108 -89c0 -89 -113 -183 -218 -183c-66 0 -108 36 -108 89c0 89 113 183 218 183z" fill="currentColor"/>
</g>
</a>
<g transform="translate(17.4518, 1.9367)">
<rect x="-0.0650" y="-3.1868" width="0.1300" height="3.0007" ry="0.0400" fill="currentColor"/>
</g>
<a style="color:inherit;" xlink:href="textedit:///Users/181081/mdf/lilypond/music375/05-prechorus-melody.ly:14:12:13">
<g transform="translate(18.7351, 1.4367)">
<path transform="scale(0.0040, -0.0040)" d="M218 136c66 0 108 -36 108 -89c0 -89 -113 -183 -218 -183c-66 0 -108 36 -108 89c0 89 113 183 218 183z" fill="currentColor"/>
</g>
</a>
<a style="color:inherit;" xlink:href="textedit:///Users/181081/mdf/lilypond/music375/05-prechorus-melody.ly:23:7:8">
<g transform="translate(18.7351, 10.4367)">
<path transform="scale(0.0040, -0.0040)" d="M314 65c0 23 -19 41 -42 41c-39 0 -204 -110 -231 -143c-7 -8 -10 -18 -10 -28c0 -23 19 -41 42 -41c39 0 203 110 230 143c7 8 11 18 11 28zM262 136c41 0 82 -14 82 -71c0 -26 -16 -112 -74 -151c-25 -17 -87 -50 -187 -50c-41 0 -83 14 -83 71c0 26 16 112 74 151
c25 17 88 50 188 50z" fill="currentColor"/>
</g>
</a>
<g transform="translate(18.8001, 1.9367)">
<rect x="-0.0650" y="-0.3139" width="0.1300" height="3.3139" ry="0.0400" fill="currentColor"/>
</g>
<g transform="translate(18.8001, 10.9367)">
<rect x="-0.0650" y="-0.2410" width="0.1300" height="3.2410" ry="0.0400" fill="currentColor"/>
</g>
<a style="color:inherit;" xlink:href="textedit:///Users/181081/mdf/lilypond/music375/05-prechorus-melody.ly:14:15:16">
<g transform="translate(22.4393, 1.4367)">
<path transform="scale(0.0040, -0.0040)" d="M218 136c66 0 108 -36 108 -89c0 -89 -113 -183 -218 -183c-66 0 -108 36 -108 89c0 89 113 183 218 183z" fill="currentColor"/>
</g>
</a>
<g transform="translate(22.5043, 1.9367)">
<rect x="-0.0650" y="-0.3139" width="0.1300" height="3.3139" ry="0.0400" fill="currentColor"/>
</g>
<a style="color:inherit;" xlink:href="textedit:///Users/181081/mdf/lilypond/music375/05-prechorus-melody.ly:7:9:10">
<g transform="translate(27.2269, -1.7705)">
<text font-family="sans-serif" font-size="2.6165" text-anchor="start" fill="currentColor">
<tspan>F</tspan>
</text>
</g>
</a>
<a style="color:inherit;" xlink:href="textedit:///Users/181081/mdf/lilypond/music375/05-prechorus-melody.ly:15:2:3">
<g transform="translate(27.2269, 1.4367)">
<path transform="scale(0.0040, -0.0040)" d="M218 136c66 0 108 -36 108 -89c0 -89 -113 -183 -218 -183c-66 0 -108 36 -108 89c0 89 113 183 218 183z" fill="currentColor"/>
</g>
</a>
<a style="color:inherit;" xlink:href="textedit:///Users/181081/mdf/lilypond/music375/05-prechorus-melody.ly:24:2:3">
<g transform="translate(27.2269, 9.9367)">
<path transform="scale(0.0040, -0.0040)" d="M218 136c66 0 108 -36 108 -89c0 -89 -113 -183 -218 -183c-66 0 -108 36 -108 89c0 89 113 183 218 183z" fill="currentColor"/>
</g>
</a>
<g transform="translate(27.2919, 1.9367)">
<rect x="-0.0650" y="-0.3139" width="0.1300" height="2.5007" ry="0.0400" fill="currentColor"/>
</g>
<g transform="translate(27.2919, 10.9367)">
<rect x="-0.0650" y="-0.8139" width="0.1300" height="3.3139" ry="0.0400" fill="currentColor"/>
</g>
<a style="color:inherit;" xlink:href="textedit:///Users/181081/mdf/lilypond/music375/05-prechorus-melody.ly:15:5:6">
<g transform="translate(29.7311, 1.4367)">
<path transform="scale(0.0040, -0.0040)" d="M218 136c66 0 108 -36 108 -89c0 -89 -113 -183 -218 -183c-66 0 -108 36 -108 89c0 89 113 183 218 183z" fill="currentColor"/>
</g>
</a>
<g transform="translate(29.7961, 1.9367)">
<rect x="-0.0650" y="-0.3139" width="0.1300" height="2.3762" ry="0.0400" fill="currentColor"/>
</g>
<a style="color:inherit;" xlink:href="textedit:///Users/181081/mdf/lilypond/music375/05-prechorus-melody.ly:15:7:8">
<g transform="translate(32.2353, 0.9367)">
<path transform="scale(0.0040, -0.0040)" d="M218 136c66 0 108 -36 108 -89c0 -89 -113 -183 -218 -183c-66 0 -108 36 -108 89c0 89 113 183 218 183z" fill="currentColor"/>
</g>
</a>
<a style="color:inherit;" xlink:href="textedit:///Users/181081/mdf/lilypond/music375/05-prechorus-melody.ly:24:5:6">
<g transform="translate(32.2353, 8.9367)">
<path transform="scale(0.0040, -0.0040)" d="M218 136c66 0 108 -36 108 -89c0 -89 -113 -183 -218 -183c-66 0 -108 36 -108 89c0 89 113 183 218 183z" fill="currentColor"/>
</g>
</a>
<g transform="translate(32.3003, 1.9367)">
<rect x="-0.0650" y="-0.8139" width="0.1300" height="2.7516" ry="0.0400" fill="currentColor"/>
</g>
<g transform="translate(32.3003, 10.9367)">
<rect x="-0.0650" y="-1.8139" width="0.1300" height="3.3139" ry="0.0400" fill="currentColor"/>
</g>
<a style="color:inherit;" xlink:href="textedit:///Users/181081/mdf/lilypond/music375/05-prechorus-melody.ly:7:2:3">
<g transform="translate(8.7000, -1.7705)">
<text font-family="sans-serif" font-size="2.6165" text-anchor="start" fill="currentColor">
<tspan>A</tspan>
</text>
</g>
<g transform="translate(10.4754, -1.7705)">
<text font-family="sans-serif" font-size="2.6165" text-anchor="start" fill="currentColor">
<tspan>m</tspan>
</text>
</g>
</a>
<g transform="translate(9.8742, -0.8733)">
<polygon stroke-linejoin="round" stroke-linecap="round" stroke-width="0.0800" fill="currentColor" stroke="currentColor" points="7.6026 -0.5800 7.6026 -0.1800 0.0400 0.2000 0.0400 -0.2000"/>
</g>
<a style="color:inherit;" xlink:href="textedit:///Users/181081/mdf/lilypond/music375/05-prechorus-melody.ly:15:9:10">
<g transform="translate(34.7395, 0.9367)">
<path transform="scale(0.0040, -0.0040)" d="M218 136c66 0 108 -36 108 -89c0 -89 -113 -183 -218 -183c-66 0 -108 36 -108 89c0 89 113 183 218 183z" fill="currentColor"/>
</g>
</a>
<g transform="translate(34.8045, 1.9367)">
<rect x="-0.0650" y="-0.8139" width="0.1300" height="2.6271" ry="0.0400" fill="currentColor"/>
</g>
<a style="color:inherit;" xlink:href="textedit:///Users/181081/mdf/lilypond/music375/05-prechorus-melody.ly:15:11:12">
<g transform="translate(37.2437, 0.4367)">
<path transform="scale(0.0040, -0.0040)" d="M218 136c66 0 108 -36 108 -89c0 -89 -113 -183 -218 -183c-66 0 -108 36 -108 89c0 89 113 183 218 183z" fill="currentColor"/>
</g>
</a>
<a style="color:inherit;" xlink:href="textedit:///Users/181081/mdf/lilypond/music375/05-prechorus-melody.ly:24:7:8">
<g transform="translate(37.2437, 7.9367)">
<path transform="scale(0.0040, -0.0040)" d="M314 65c0 23 -19 41 -42 41c-39 0 -204 -110 -231 -143c-7 -8 -10 -18 -10 -28c0 -23 19 -41 42 -41c39 0 203 110 230 143c7 8 11 18 11 28zM262 136c41 0 82 -14 82 -71c0 -26 -16 -112 -74 -151c-25 -17 -87 -50 -187 -50c-41 0 -83 14 -83 71c0 26 16 112 74 151
c25 17 88 50 188 50z" fill="currentColor"/>
</g>
</a>
<g transform="translate(37.3087, 1.9367)">
<rect x="-0.0650" y="-1.3139" width="0.1300" height="3.3139" ry="0.0400" fill="currentColor"/>
</g>
<g transform="translate(37.3087, 10.9367)">
<rect x="-0.0650" y="-2.7410" width="0.1300" height="3.2410" ry="0.0400" fill="currentColor"/>
</g>
<a style="color:inherit;" xlink:href="textedit:///Users/181081/mdf/lilypond/music375/05-prechorus-melody.ly:15:14:15">
<g transform="translate(40.9480, 0.4367)">
<path transform="scale(0.0040, -0.0040)" d="M218 136c66 0 108 -36 108 -89c0 -89 -113 -183 -218 -183c-66 0 -108 36 -108 89c0 89 113 183 218 183z" fill="currentColor"/>
</g>
</a>
<g transform="translate(41.0130, 1.9367)">
<rect x="-0.0650" y="-1.3139" width="0.1300" height="3.3139" ry="0.0400" fill="currentColor"/>
</g>
<a style="color:inherit;" xlink:href="textedit:///Users/181081/mdf/lilypond/music375/05-prechorus-melody.ly:7:14:15">
<g transform="translate(45.6948, -1.7705)">
<text font-family="sans-serif" font-size="2.6165" text-anchor="start" fill="currentColor">
<tspan>C</tspan>
</text>
</g>
</a>
<a style="color:inherit;" xlink:href="textedit:///Users/181081/mdf/lilypond/music375/05-prechorus-melody.ly:16:2:3">
<g transform="translate(45.6948, 0.4367)">
<path transform="scale(0.0040, -0.0040)" d="M218 136c66 0 108 -36 108 -89c0 -89 -113 -183 -218 -183c-66 0 -108 36 -108 89c0 89 113 183 218 183z" fill="currentColor"/>
</g>
</a>
<a style="color:inherit;" xlink:href="textedit:///Users/181081/mdf/lilypond/music375/05-prechorus-melody.ly:25:2:3">
<g transform="translate(45.6948, 11.4367)">
<path transform="scale(0.0040, -0.0040)" d="M218 136c66 0 108 -36 108 -89c0 -89 -113 -183 -218 -183c-66 0 -108 36 -108 89c0 89 113 183 218 183z" fill="currentColor"/>
</g>
</a>
<g transform="translate(-0.0600, 6.4367)">
<rect x="0.0000" y="-6.5500" width="0.1600" height="13.1000" ry="0.0500" fill="currentColor"/>
</g>
<g transform="translate(45.7598, 1.9367)">
<rect x="-0.0650" y="-1.3139" width="0.1300" height="2.5007" ry="0.0400" fill="currentColor"/>
</g>
<g transform="translate(46.9340, 10.9367)">
<rect x="-0.0650" y="-3.0000" width="0.1300" height="3.3139" ry="0.0400" fill="currentColor"/>
</g>
<g transform="translate(-0.3600, 6.4367)">
<path transform="scale(0.0040, -0.0040)" d="M-81 -366c0 255 -132 363 -132 366c0 18 132 96 132 366c0 261 -108 489 -108 780c0 189 45 366 177 501c15 15 39 -9 24 -24c-99 -99 -129 -225 -129 -360c0 -255 102 -480 102 -765c0 -186 -45 -363 -174 -498c129 -135 174 -312 174 -498c0 -285 -102 -510 -102 -765
c0 -135 30 -261 129 -360c15 -15 -9 -39 -24 -24c-132 135 -177 312 -177 501c0 291 108 519 108 780z" fill="currentColor"/>
</g>
<a style="color:inherit;" xlink:href="textedit:///Users/181081/mdf/lilypond/music375/05-prechorus-melody.ly:16:5:6">
<g transform="translate(48.1990, 0.4367)">
<path transform="scale(0.0040, -0.0040)" d="M218 136c66 0 108 -36 108 -89c0 -89 -113 -183 -218 -183c-66 0 -108 36 -108 89c0 89 113 183 218 183z" fill="currentColor"/>
</g>
</a>
<g transform="translate(48.2640, 1.9367)">
<rect x="-0.0650" y="-1.3139" width="0.1300" height="2.3762" ry="0.0400" fill="currentColor"/>
</g>
<a style="color:inherit;" xlink:href="textedit:///Users/181081/mdf/lilypond/music375/05-prechorus-melody.ly:16:7:8">
<g transform="translate(50.7032, -0.0633)">
<path transform="scale(0.0040, -0.0040)" d="M218 136c66 0 108 -36 108 -89c0 -89 -113 -183 -218 -183c-66 0 -108 36 -108 89c0 89 113 183 218 183z" fill="currentColor"/>
</g>
</a>
<a style="color:inherit;" xlink:href="textedit:///Users/181081/mdf/lilypond/music375/05-prechorus-melody.ly:25:6:7">
<g transform="translate(50.7032, 10.4367)">
<path transform="scale(0.0040, -0.0040)" d="M218 136c66 0 108 -36 108 -89c0 -89 -113 -183 -218 -183c-66 0 -108 36 -108 89c0 89 113 183 218 183z" fill="currentColor"/>
</g>
</a>
<g transform="translate(50.7682, 1.9367)">
<rect x="-0.0650" y="-1.8139" width="0.1300" height="2.7516" ry="0.0400" fill="currentColor"/>
</g>
<g transform="translate(50.7682, 10.9367)">
<rect x="-0.0650" y="-0.3139" width="0.1300" height="3.3139" ry="0.0400" fill="currentColor"/>
</g>
<a style="color:inherit;" xlink:href="textedit:///Users/181081/mdf/lilypond/music375/05-prechorus-melody.ly:16:9:10">
<g transform="translate(53.2075, -0.0633)">
<path transform="scale(0.0040, -0.0040)" d="M218 136c66 0 108 -36 108 -89c0 -89 -113 -183 -218 -183c-66 0 -108 36 -108 89c0 89 113 183 218 183z" fill="currentColor"/>
</g>
</a>
<g transform="translate(53.2725, 1.9367)">
<rect x="-0.0650" y="-1.8139" width="0.1300" height="2.6271" ry="0.0400" fill="currentColor"/>
</g>
<a style="color:inherit;" xlink:href="textedit:///Users/181081/mdf/lilypond/music375/05-prechorus-melody.ly:16:11:12">
<g transform="translate(55.7117, -0.5633)">
<path transform="scale(0.0040, -0.0040)" d="M218 136c66 0 108 -36 108 -89c0 -89 -113 -183 -218 -183c-66 0 -108 36 -108 89c0 89 113 183 218 183z" fill="currentColor"/>
</g>
</a>
<a style="color:inherit;" xlink:href="textedit:///Users/181081/mdf/lilypond/music375/05-prechorus-melody.ly:25:8:9">
<g transform="translate(55.7117, 9.4367)">
<path transform="scale(0.0040, -0.0040)" d="M314 65c0 23 -19 41 -42 41c-39 0 -204 -110 -231 -143c-7 -8 -10 -18 -10 -28c0 -23 19 -41 42 -41c39 0 203 110 230 143c7 8 11 18 11 28zM262 136c41 0 82 -14 82 -71c0 -26 -16 -112 -74 -151c-25 -17 -87 -50 -187 -50c-41 0 -83 14 -83 71c0 26 16 112 74 151
c25 17 88 50 188 50z" fill="currentColor"/>
</g>
</a>
<g transform="translate(55.7767, 1.9367)">
<rect x="-0.0650" y="-2.3139" width="0.1300" height="3.3139" ry="0.0400" fill="currentColor"/>
</g>
<g transform="translate(55.7767, 10.9367)">
<rect x="-0.0650" y="-1.2410" width="0.1300" height="3.2410" ry="0.0400" fill="currentColor"/>
</g>
<a style="color:inherit;" xlink:href="textedit:///Users/181081/mdf/lilypond/music375/05-prechorus-melody.ly:16:14:15">
<g transform="translate(59.4159, -0.5633)">
<path transform="scale(0.0040, -0.0040)" d="M218 136c66 0 108 -36 108 -89c0 -89 -113 -183 -218 -183c-66 0 -108 36 -108 89c0 89 113 183 218 183z" fill="currentColor"/>
</g>
</a>
<g transform="translate(59.4809, 1.9367)">
<rect x="-0.0650" y="-2.3139" width="0.1300" height="3.3139" ry="0.0400" fill="currentColor"/>
</g>
<g transform="translate(23.5107, 19.4554)">
<rect x="0.0000" y="-2.0000" width="0.6000" height="4.0500" ry="0.0000" fill="currentColor"/>
</g>
<g transform="translate(23.0207, 19.4554)">
<rect x="0.0000" y="-2.0000" width="0.1900" height="4.0500" ry="0.0000" fill="currentColor"/>
</g>
<g transform="translate(0.0000, 21.4554)">
<line stroke-linejoin="round" stroke-linecap="round" stroke-width="0.1000" stroke="currentColor" x1="0.0500" y1="0" x2="24.0607" y2="0"/>
</g>
<g transform="translate(0.0000, 20.4554)">
<line stroke-linejoin="round" stroke-linecap="round" stroke-width="0.1000" stroke="currentColor" x1="0.0500" y1="0" x2="24.0607" y2="0"/>
</g>
<g transform="translate(0.0000, 19.4554)">
<line stroke-linejoin="round" stroke-linecap="round" stroke-width="0.1000" stroke="currentColor" x1="0.0500" y1="0" x2="24.0607" y2="0"/>
</g>
<g transform="translate(0.0000, 18.4554)">
<line stroke-linejoin="round" stroke-linecap="round" stroke-width="0.1000" stroke="currentColor" x1="0.0500" y1="0" x2="24.0607" y2="0"/>
</g>
<g transform="translate(0.0000, 17.4554)">
<line stroke-linejoin="round" stroke-linecap="round" stroke-width="0.1000" stroke="currentColor" x1="0.0500" y1="0" x2="24.0607" y2="0"/>
</g>
<g transform="translate(23.5107, 17.5187)">
<rect x="0.0000" y="3.9867" width="0.6000" height="4.9500" ry="0.0000" fill="currentColor"/>
</g>
<g transform="translate(23.0207, 17.5187)">
<rect x="0.0000" y="3.9867" width="0.1900" height="4.9500" ry="0.0000" fill="currentColor"/>
</g>
<g transform="translate(0.0000, 30.4554)">
<line stroke-linejoin="round" stroke-linecap="round" stroke-width="0.1000" stroke="currentColor" x1="0.0500" y1="0" x2="24.0607" y2="0"/>
</g>
<g transform="translate(0.0000, 29.4554)">
<line stroke-linejoin="round" stroke-linecap="round" stroke-width="0.1000" stroke="currentColor" x1="0.0500" y1="0" x2="24.0607" y2="0"/>
</g>
<g transform="translate(0.0000, 28.4554)">
<line stroke-linejoin="round" stroke-linecap="round" stroke-width="0.1000" stroke="currentColor" x1="0.0500" y1="0" x2="24.0607" y2="0"/>
</g>
<g transform="translate(0.0000, 27.4554)">
<line stroke-linejoin="round" stroke-linecap="round" stroke-width="0.1000" stroke="currentColor" x1="0.0500" y1="0" x2="24.0607" y2="0"/>
</g>
<g transform="translate(0.0000, 26.4554)">
<line stroke-linejoin="round" stroke-linecap="round" stroke-width="0.1000" stroke="currentColor" x1="0.0500" y1="0" x2="24.0607" y2="0"/>
</g>
<g transform="translate(23.5107, 28.4554)">
<rect x="0.0000" y="-2.0500" width="0.6000" height="4.0500" ry="0.0000" fill="currentColor"/>
</g>
<g transform="translate(23.0207, 28.4554)">
<rect x="0.0000" y="-2.0500" width="0.1900" height="4.0500" ry="0.0000" fill="currentColor"/>
</g>
<g transform="translate(-0.0600, 23.9554)">
<rect x="0.0000" y="-6.5500" width="0.1600" height="13.1000" ry="0.0500" fill="currentColor"/>
</g>
<g transform="translate(5.8000, 20.4554)">
<polygon stroke-linejoin="round" stroke-linecap="round" stroke-width="0.0800" fill="currentColor" stroke="currentColor" points="7.6026 0.6100 7.6026 1.0100 0.0400 0.2000 0.0400 -0.2000"/>
</g>
<g transform="translate(0.8000, 20.4554)">
<path transform="scale(0.0040, -0.0040)" d="M266 -635h-6c-108 0 -195 88 -195 197c0 58 53 103 112 103c54 0 95 -47 95 -103c0 -52 -43 -95 -95 -95c-11 0 -21 2 -31 6c26 -39 68 -65 117 -65h4zM461 -203c68 24 113 90 113 164c0 90 -66 179 -173 190c19 -89 48 -242 60 -354zM74 28c0 -145 141 -247 264 -247
c1 0 47 0 82 6c-7 64 -29 203 -63 364c-79 -8 -124 -61 -124 -119c0 -44 25 -91 81 -123c5 -5 7 -10 7 -15c0 -11 -10 -22 -22 -22c-15 0 -126 62 -126 187c0 88 58 174 160 197c-14 58 -29 117 -46 175c-107 -121 -213 -243 -213 -403zM250 553c-29 96 -52 170 -52 346
c0 115 55 224 149 292c6 5 14 5 20 0c68 -80 133 -245 133 -358c0 -143 -86 -255 -180 -364c21 -68 39 -138 56 -207c2 0 7 1 13 1c155 0 256 -128 256 -261c0 -113 -74 -212 -180 -246c3 -35 5 -70 5 -105c0 -19 -1 -39 -2 -58c-7 -119 -88 -225 -202 -228l1 43
c93 2 153 92 159 191c1 18 2 37 2 55c0 31 -1 61 -4 92c-5 -1 -44 -8 -89 -8c-193 0 -333 180 -333 374c0 177 131 306 248 441zM428 916c0 34 1 66 -20 129c-99 -48 -162 -149 -162 -259c0 -52 12 -115 36 -194c80 97 146 198 146 324z" fill="currentColor"/>
</g>
<g transform="translate(0.8000, 27.4554)">
<path transform="scale(0.0040, -0.0040)" d="M557 -125c0 28 23 51 51 51s51 -23 51 -51s-23 -51 -51 -51s-51 23 -51 51zM557 125c0 28 23 51 51 51s51 -23 51 -51s-23 -51 -51 -51s-51 23 -51 51zM232 263c172 0 293 -88 293 -251c0 -263 -263 -414 -516 -521c-3 -3 -6 -4 -9 -4c-7 0 -13 6 -13 13c0 3 1 6 4 9
c202 118 412 265 412 493c0 120 -63 235 -171 235c-74 0 -129 -54 -154 -126c11 5 22 8 34 8c55 0 100 -45 100 -100c0 -58 -44 -106 -100 -106c-60 0 -112 47 -112 106c0 133 102 244 232 244z" fill="currentColor"/>
</g>
<a style="color:inherit;" xlink:href="textedit:///Users/181081/mdf/lilypond/music375/05-prechorus-melody.ly:7:19:20">
<g transform="translate(5.8000, 15.8734)">
<text font-family="sans-serif" font-size="2.6165" text-anchor="start" fill="currentColor">
<tspan>G</tspan>
</text>
</g>
</a>
<a style="color:inherit;" xlink:href="textedit:///Users/181081/mdf/lilypond/music375/05-prechorus-melody.ly:17:2:3">
<g transform="translate(5.8000, 16.9554)">
<path transform="scale(0.0040, -0.0040)" d="M218 136c66 0 108 -36 108 -89c0 -89 -113 -183 -218 -183c-66 0 -108 36 -108 89c0 89 113 183 218 183z" fill="currentColor"/>
</g>
</a>
<a style="color:inherit;" xlink:href="textedit:///Users/181081/mdf/lilypond/music375/05-prechorus-melody.ly:26:2:3">
<g transform="translate(5.8000, 30.4554)">
<path transform="scale(0.0040, -0.0040)" d="M218 136c66 0 108 -36 108 -89c0 -89 -113 -183 -218 -183c-66 0 -108 36 -108 89c0 89 113 183 218 183z" fill="currentColor"/>
</g>
</a>
<g transform="translate(5.8650, 19.4554)">
<rect x="-0.0650" y="-2.3139" width="0.1300" height="3.3208" ry="0.0400" fill="currentColor"/>
</g>
<g transform="translate(7.0392, 28.4554)">
<rect x="-0.0650" y="-1.5000" width="0.1300" height="3.3139" ry="0.0400" fill="currentColor"/>
</g>
<a style="color:inherit;" xlink:href="textedit:///Users/181081/mdf/lilypond/music375/05-prechorus-melody.ly:17:5:6">
<g transform="translate(8.3042, 17.4554)">
<path transform="scale(0.0040, -0.0040)" d="M218 136c66 0 108 -36 108 -89c0 -89 -113 -183 -218 -183c-66 0 -108 36 -108 89c0 89 113 183 218 183z" fill="currentColor"/>
</g>
</a>
<g transform="translate(8.3692, 19.4554)">
<rect x="-0.0650" y="-1.8139" width="0.1300" height="3.0862" ry="0.0400" fill="currentColor"/>
</g>
<a style="color:inherit;" xlink:href="textedit:///Users/181081/mdf/lilypond/music375/05-prechorus-melody.ly:17:7:8">
<g transform="translate(10.8084, 17.9554)">
<path transform="scale(0.0040, -0.0040)" d="M218 136c66 0 108 -36 108 -89c0 -89 -113 -183 -218 -183c-66 0 -108 36 -108 89c0 89 113 183 218 183z" fill="currentColor"/>
</g>
</a>
<a style="color:inherit;" xlink:href="textedit:///Users/181081/mdf/lilypond/music375/05-prechorus-melody.ly:26:6:7">
<g transform="translate(10.8084, 29.4554)">
<path transform="scale(0.0040, -0.0040)" d="M218 136c66 0 108 -36 108 -89c0 -89 -113 -183 -218 -183c-66 0 -108 36 -108 89c0 89 113 183 218 183z" fill="currentColor"/>
</g>
</a>
<g transform="translate(10.8734, 19.4554)">
<rect x="-0.0650" y="-1.3139" width="0.1300" height="2.8516" ry="0.0400" fill="currentColor"/>
</g>
<g transform="translate(12.0476, 28.4554)">
<rect x="-0.0650" y="-2.5000" width="0.1300" height="3.3139" ry="0.0400" fill="currentColor"/>
</g>
<a style="color:inherit;" xlink:href="textedit:///Users/181081/mdf/lilypond/music375/05-prechorus-melody.ly:17:9:10">
<g transform="translate(13.3126, 18.4554)">
<path transform="scale(0.0040, -0.0040)" d="M218 136c66 0 108 -36 108 -89c0 -89 -113 -183 -218 -183c-66 0 -108 36 -108 89c0 89 113 183 218 183z" fill="currentColor"/>
</g>
</a>
<g transform="translate(13.3776, 19.4554)">
<rect x="-0.0650" y="-0.8139" width="0.1300" height="2.6170" ry="0.0400" fill="currentColor"/>
</g>
<a style="color:inherit;" xlink:href="textedit:///Users/181081/mdf/lilypond/music375/05-prechorus-melody.ly:17:11:12">
<g transform="translate(15.8168, 18.9554)">
<path transform="scale(0.0040, -0.0040)" d="M218 136c66 0 108 -36 108 -89c0 -89 -113 -183 -218 -183c-66 0 -108 36 -108 89c0 89 113 183 218 183z" fill="currentColor"/>
</g>
</a>
<a style="color:inherit;" xlink:href="textedit:///Users/181081/mdf/lilypond/music375/05-prechorus-melody.ly:26:8:9">
<g transform="translate(15.8168, 28.4554)">
<path transform="scale(0.0040, -0.0040)" d="M314 65c0 23 -19 41 -42 41c-39 0 -204 -110 -231 -143c-7 -8 -10 -18 -10 -28c0 -23 19 -41 42 -41c39 0 203 110 230 143c7 8 11 18 11 28zM262 136c41 0 82 -14 82 -71c0 -26 -16 -112 -74 -151c-25 -17 -87 -50 -187 -50c-41 0 -83 14 -83 71c0 26 16 112 74 151
c25 17 88 50 188 50z" fill="currentColor"/>
</g>
</a>
<g transform="translate(15.8818, 19.4554)">
<rect x="-0.0650" y="-0.3139" width="0.1300" height="3.3139" ry="0.0400" fill="currentColor"/>
</g>
<g transform="translate(15.8818, 28.4554)">
<rect x="-0.0650" y="0.2590" width="0.1300" height="3.0743" ry="0.0400" fill="currentColor"/>
</g>
<a style="color:inherit;" xlink:href="textedit:///Users/181081/mdf/lilypond/music375/05-prechorus-melody.ly:17:14:15">
<g transform="translate(19.5211, 18.4554)">
<path transform="scale(0.0040, -0.0040)" d="M218 136c66 0 108 -36 108 -89c0 -89 -113 -183 -218 -183c-66 0 -108 36 -108 89c0 89 113 183 218 183z" fill="currentColor"/>
</g>
</a>
<g transform="translate(19.5861, 19.4554)">
<rect x="-0.0650" y="-0.8139" width="0.1300" height="3.3139" ry="0.0400" fill="currentColor"/>
</g>
<g transform="translate(-0.3600, 23.9554)">
<path transform="scale(0.0040, -0.0040)" d="M-81 -366c0 255 -132 363 -132 366c0 18 132 96 132 366c0 261 -108 489 -108 780c0 189 45 366 177 501c15 15 39 -9 24 -24c-99 -99 -129 -225 -129 -360c0 -255 102 -480 102 -765c0 -186 -45 -363 -174 -498c129 -135 174 -312 174 -498c0 -285 -102 -510 -102 -765
c0 -135 30 -261 129 -360c15 -15 -9 -39 -24 -24c-132 135 -177 312 -177 501c0 291 108 519 108 780z" fill="currentColor"/>
</g>
</svg>
